Coordinates
version=1
nRows=7
nColumns=63
inDegrees=yes

Units are S.I. units (second, meters, Newtons, ...)
If the header above contains a line with 'inDegrees', this indicates whether rotational values are in degrees (yes) or radians (no).

endheader
time	pelvis_tilt	pelvis_list	pelvis_rotation	pelvis_tx	pelvis_ty	pelvis_tz	hip_flexion_r	hip_adduction_r	hip_rotation_r	knee_angle_r	knee_angle_r_beta	ankle_angle_r	subtalar_angle_r	mtp_angle_r	hip_flexion_l	hip_adduction_l	hip_rotation_l	knee_angle_l	knee_angle_l_beta	ankle_angle_l	subtalar_angle_l	mtp_angle_l	L5_S1_Flex_Ext	L5_S1_Lat_Bending	L5_S1_axial_rotation	L4_L5_Flex_Ext	L4_L5_Lat_Bending	L4_L5_axial_rotation	L3_L4_Flex_Ext	L3_L4_Lat_Bending	L3_L4_axial_rotation	L2_L3_Flex_Ext	L2_L3_Lat_Bending	L2_L3_axial_rotation	L1_L2_Flex_Ext	L1_L2_Lat_Bending	L1_L2_axial_rotation	L1_T12_Flex_Ext	L1_T12_Lat_Bending	L1_T12_axial_rotation	Abs_r3	Abs_r2	Abs_r1	Abs_t1	Abs_t2	neck_flexion	neck_bending	neck_rotation	arm_flex_r	arm_add_r	arm_rot_r	elbow_flex_r	pro_sup_r	wrist_flex_r	wrist_dev_r	arm_flex_l	arm_add_l	arm_rot_l	elbow_flex_l	pro_sup_l	wrist_flex_l	wrist_dev_l
      0.00000000	      6.23071325	     -5.11291413	     97.94564086	      0.22489486	      1.03611002	      0.29040605	     -1.78017310	      7.17800703	     -7.04973118	      6.74607711	      0.11774126	     29.43988327	     -3.82890727	      0.00000000	     -3.45102813	     -8.05591174	     15.03507729	      0.36051379	      0.00629215	     29.15889875	     -9.64407930	      0.00000000	     -0.01663010	      0.71965231	     -0.73113724	     -0.03088376	      0.95713758	     -0.77683332	     -0.02732160	      1.74976264	     -0.77683332	     -0.01900655	      1.74976264	     -0.63974509	     -0.01544271	      1.46751500	     -0.59404901	     -0.00950244	      1.11474143	     -0.54835293	     -0.11878717	      8.14085090	     -4.06636599	      0.00000000	      0.00000000	     24.36379057	      1.80620902	     12.39414636	     18.56186741	      1.18368888	     83.85761980	     19.60518158	     54.48172148	     -2.43814172	     -0.35929358	     20.97829860	     11.81552654	    199.19151915	      0.44544313	     49.82771416	    -11.60288733	      1.61254143
      0.01666667	      6.54177774	     -5.31244435	     97.72495853	      0.22495168	      1.03631566	      0.29153521	     -0.96560522	      7.11995026	    -10.18179865	      7.24836356	      0.12650781	     31.69279466	      1.77063594	      0.00000000	     -3.19375969	     -8.30278315	     15.53243062	      0.36720156	      0.00640888	     28.94941067	    -10.86510059	      0.00000000	     -0.01135272	      0.75944750	     -0.70997810	     -0.02108314	      1.01006517	     -0.75435173	     -0.01865139	      1.84652065	     -0.75435173	     -0.01297503	      1.84652065	     -0.62123084	     -0.01054214	      1.54866534	     -0.57685720	     -0.00648695	      1.17638418	     -0.53248357	     -0.08109136	      8.59102200	     -3.94868518	      0.00000000	      0.00000000	     24.49103590	      1.85173497	     12.74394094	     18.15767295	      0.93784165	     83.81704618	     19.86943626	     50.58225120	     -0.24746271	      0.50449088	     20.75113037	     11.87665824	    197.20223949	      0.46443164	     40.27090180	    -10.40587075	     -1.69422874
      0.03333333	      6.73146069	     -5.45958957	     97.50536616	      0.22498850	      1.03659985	      0.29253201	     -0.37503417	      7.06508764	    -11.81632150	      7.68019496	      0.13404469	     32.82962181	      4.66129748	      0.00000000	     -3.00456061	     -8.43719007	     15.11504503	      0.37655050	      0.00657205	     29.03436494	    -10.66329913	      0.00000000	     -0.00825135	      0.78795606	     -0.69711174	     -0.01532358	      1.04798157	     -0.74068123	     -0.01355614	      1.91583638	     -0.74068123	     -0.00943047	      1.91583638	     -0.60997278	     -0.00766220	      1.60680001	     -0.56640329	     -0.00471482	      1.22054394	     -0.52283381	     -0.05893855	      8.91351660	     -3.87712638	      0.00000000	      0.00000000	     24.58200686	      1.82872760	     13.13419696	     17.83087826	      0.66066651	     83.88549574	     20.21749793	     47.41439224	      1.22470520	      1.30895223	     20.46528927	     11.88101740	    196.00403383	      0.48822672	     31.28800085	     -8.66144235	     -3.83545123
      0.05000000	      6.85578811	     -5.52930615	     97.29612781	      0.22496697	      1.03696392	      0.29341211	     -0.00095354	      7.08825575	    -11.71685205	      8.01995302	      0.13997459	     33.14911742	      4.88703120	      0.00000000	     -2.90553547	     -8.51888987	     14.15554891	      0.38630329	      0.00674226	     29.28653238	     -9.60005085	      0.00000000	     -0.00961861	      0.81110750	     -0.68470510	     -0.01786272	      1.07877297	     -0.72749917	     -0.01580241	      1.97212677	     -0.72749917	     -0.01099311	      1.97212677	     -0.59911696	     -0.00893184	      1.65401041	     -0.55632289	     -0.00549607	      1.25640551	     -0.51352882	     -0.06870476	      9.17541023	     -3.80812435	      0.00000000	      0.00000000	     24.61732535	      1.68391891	     13.40950962	     17.44202391	      0.31460322	     83.03213805	     20.65304438	     46.25442433	      2.31764276	      2.12436191	     20.18882793	     12.03837150	    194.94150179	      0.50875907	     30.39343024	     -8.43294610	     -5.01862113
      0.06666667	      6.79585359	     -5.63803304	     97.22861554	      0.22500421	      1.03726667	      0.29418723	      0.30117386	      6.96540443	    -11.77466803	      8.33365667	      0.14544975	     33.23488548	      4.72102548	      0.00000000	     -2.74770862	     -8.43204999	     13.91254040	      0.40688431	      0.00710147	     29.44295795	     -9.11952800	      0.00000000	      0.00264532	      0.80402218	     -0.69668244	      0.00491262	      1.06934950	     -0.74022510	      0.00434599	      1.95489954	     -0.74022510	      0.00302333	      1.95489954	     -0.60959714	      0.00245644	      1.63956204	     -0.56605449	      0.00151153	      1.24543036	     -0.52251183	      0.01889524	      9.09525975	     -3.87473875	      0.00000000	      0.00000000	     24.63749773	      1.72410026	     13.32390242	     17.14674710	      0.15751361	     82.95481123	     20.91805344	     46.12117187	      2.38688302	      2.31133979	     19.85457471	     12.14526812	    194.84357913	      0.53499006	     30.44168482	     -8.52406406	     -4.92008949
      0.08333333	      6.70796038	     -5.72970852	     97.18516170	      0.22451687	      1.03754196	      0.29523239	      0.66661060	      6.74715949	    -11.91859794	      8.92447799	      0.15576153	     33.33455127	      4.45090954	      0.00000000	     -2.59512433	     -8.26047442	     13.87363598	      0.40858399	      0.00713114	     29.20119903	     -9.25572302	      0.00000000	      0.01344874	      0.80588732	     -0.74241363	      0.02497566	      1.07183013	     -0.78881449	      0.02209494	      1.95943443	     -0.78881449	      0.01537057	      1.95943443	     -0.64961193	      0.01248850	      1.64336542	     -0.60321108	      0.00768461	      1.24831946	     -0.55681023	      0.09606301	      9.11635852	     -4.12908191	      0.00000000	      0.00000000	     24.28070738	      1.54642004	     13.63191015	     16.93560788	     -0.25810716	     82.58183669	     21.52333528	     45.70114611	      3.05335516	      2.90710120	     19.65237357	     12.23456227	    195.17579135	      0.52846737	     30.37634461	     -8.58634398	     -5.44572280
      0.10000000	      6.66283167	     -5.71433738	     97.07816634	      0.22448654	      1.03786780	      0.29577409	      0.69506598	      6.65608309	    -12.04835122	      9.12393128	      0.15924264	     33.14291279	      4.30165540	      0.00000000	     -2.59586270	     -8.19643631	     13.90585078	      0.42000996	      0.00733056	     29.22426687	     -9.27621818	      0.00000000	      0.01332235	      0.80310247	     -0.75439199	      0.02474094	      1.06812629	     -0.80154149	      0.02188729	      1.95266335	     -0.80154149	      0.01522611	      1.95266335	     -0.66009299	      0.01237113	      1.63768656	     -0.61294349	      0.00761239	      1.24400573	     -0.56579399	      0.09516022	      9.08485578	     -4.19570192	      0.00000000	      0.00000000	     24.26575968	      1.56624531	     13.66297378	     16.67522723	     -0.37031451	     82.58166191	     21.58769659	     45.67516267	      3.17897463	      3.11346644	     19.37336047	     12.29353377	    195.33019199	      0.54825653	     30.41498399	     -8.58962963	     -5.60351520
